
<?xml version="1.0" encoding="UTF-8"?>
<svg version="1.1" xmlns="http://www.w3.org/2000/svg" width="240" height="205">
<path d="M0 0 C79.2 0 158.4 0 240 0 C240 67.65 240 135.3 240 205 C160.8 205 81.6 205 0 205 C0 137.35 0 69.7 0 0 Z " fill="#0D1017" transform="translate(0,0)"/>
<path d="M0 0 C1.748573 0.00483398 1.748573 0.00483398 3.5324707 0.00976562 C13.03368171 0.16204756 21.7090083 1.5811077 30.75 4.4375 C30.75 5.0975 30.75 5.7575 30.75 6.4375 C31.69875 6.64375 32.6475 6.85 33.625 7.0625 C43.27394516 9.8775846 50.67005086 16.59553234 57.75 23.4375 C58.57757813 24.23414062 59.40515625 25.03078125 60.2578125 25.8515625 C62.83400074 28.52466065 65.07869931 31.28584361 67.3125 34.25 C68.05628906 35.22582031 68.80007812 36.20164063 69.56640625 37.20703125 C81.67508072 55.12093784 83.7471036 78.15250515 80.05078125 99.109375 C78.03273195 107.31781181 74.5541441 114.91797516 70.75 122.4375 C70.09 122.4375 69.43 122.4375 68.75 122.4375 C68.42 123.7575 68.09 125.0775 67.75 126.4375 C67.09 126.4375 66.43 126.4375 65.75 126.4375 C65.4096875 127.5203125 65.4096875 127.5203125 65.0625 128.625 C63.48073192 132.01450303 61.4509863 133.86214097 58.75 136.4375 C58.028125 137.38625 57.30625 138.335 56.5625 139.3125 C47.73001802 150.04355288 32.80935557 156.07984121 19.75 159.4375 C18.47962891 159.7778125 18.47962891 159.7778125 17.18359375 160.125 C4.18479644 163.05430644 -10.65630356 162.74050085 -23.25 158.4375 C-24.15621094 158.1590625 -25.06242187 157.880625 -25.99609375 157.59375 C-46.28787956 150.91616942 -62.88624048 135.35809338 -72.5 116.5 C-81.74692128 97.67964186 -83.64988423 74.62769606 -77.03808594 54.53320312 C-73.35764936 44.74606942 -67.80427834 33.78251855 -60.25 26.4375 C-59.59 26.4375 -58.93 26.4375 -58.25 26.4375 C-57.9921875 25.84453125 -57.734375 25.2515625 -57.46875 24.640625 C-56.15230105 22.26089035 -54.82419218 20.92771208 -52.75 19.1875 C-52.1415625 18.66671875 -51.533125 18.1459375 -50.90625 17.609375 C-49.25 16.4375 -49.25 16.4375 -47.25 16.4375 C-47.25 15.7775 -47.25 15.1175 -47.25 14.4375 C-33.28278413 4.10600193 -17.16080286 -0.14934341 0 0 Z " fill="#0F1018" transform="translate(119.25,13.5625)"/>
<path d="M0 0 C0 0.66 0 1.32 0 2 C2.64 1.67 5.28 1.34 8 1 C8 1.66 8 2.32 8 3 C11.58327753 4.00217064 11.58327753 4.00217064 15 3 C16.9453125 3.55859375 16.9453125 3.55859375 19.125 4.4375 C20.21167969 4.86869141 20.21167969 4.86869141 21.3203125 5.30859375 C21.87460938 5.53675781 22.42890625 5.76492187 23 6 C17.18262022 11.17100424 11.42786301 10 4 10 C3.401875 11.11375 2.80375 12.2275 2.1875 13.375 C0.62304383 16.28812528 -0.09907498 17.06604999 -3 19 C-4.12840421 20.73931012 -4.12840421 20.73931012 -5.125 22.8125 C-7.71831316 27.69683828 -10.77988441 32.14933922 -13.96533203 36.6574707 C-16.14630209 39.72812516 -16.14630209 39.72812516 -18 43 C-18.66 43 -19.32 43 -20 43 C-20.20625 43.825 -20.4125 44.65 -20.625 45.5 C-22.08596208 49.21881256 -23.90049125 51.72979277 -26.34375 54.84375 C-29.09587407 58.42670397 -31.52618689 62.22221913 -34 66 C-34.66 66.99 -35.32 67.98 -36 69 C-36.42783066 71.80590236 -36.22830702 74.1233315 -36 77 C-32.71252584 79.19164944 -31.51505175 79.28679386 -27.67578125 79.4140625 C-26.64775391 79.45273438 -25.61972656 79.49140625 -24.56054688 79.53125 C-23.48869141 79.5621875 -22.41683594 79.593125 -21.3125 79.625 C-20.22904297 79.66367188 -19.14558594 79.70234375 -18.02929688 79.7421875 C-15.35303533 79.83650509 -12.67678157 79.92210005 -10 80 C-9.88577375 86.17218357 -10.14966528 92.07917838 -11 98.1875 C-12.07066432 106.60155478 -12.15119405 114.91011594 -12.01367188 123.38354492 C-12.00013672 124.31658447 -11.98660156 125.24962402 -11.97265625 126.2109375 C-11.94570679 127.45302979 -11.94570679 127.45302979 -11.91821289 128.72021484 C-11.99972057 130.99221098 -12.24223693 132.85641799 -13 135 C-16.60424574 136.80212287 -20.24818505 135.96785951 -24 135 C-34.05319733 130.28006385 -43.17614282 123.77353066 -50 115 C-50.66 114.401875 -51.32 113.80375 -52 113.1875 C-54.43256701 110.52687984 -55.95901383 107.72568431 -57.63671875 104.546875 C-58.57083374 102.8017662 -59.55583046 101.08322285 -60.58203125 99.390625 C-66.69366946 89.10047015 -67.15107331 79.47863235 -67.25 67.75 C-67.26426025 66.34754028 -67.26426025 66.34754028 -67.27880859 64.91674805 C-67.2068933 49.94371845 -60.82434846 34.35567403 -51 23 C-48.7578125 22.17578125 -48.7578125 22.17578125 -47 22 C-46.91621094 21.40960938 -46.83242187 20.81921875 -46.74609375 20.2109375 C-44.43398017 13.3593339 -33.15677798 8.13874956 -27 5 C-17.85938063 0.87477986 -10.01250367 -0.74844297 0 0 Z " fill="#0E1018" transform="translate(117,25)"/>
<path d="M0 0 C1.748573 0.00483398 1.748573 0.00483398 3.5324707 0.00976562 C13.03368171 0.16204756 21.7090083 1.5811077 30.75 4.4375 C30.75 5.0975 30.75 5.7575 30.75 6.4375 C31.69875 6.64375 32.6475 6.85 33.625 7.0625 C43.27394516 9.8775846 50.67005086 16.59553234 57.75 23.4375 C58.57757813 24.23414062 59.40515625 25.03078125 60.2578125 25.8515625 C62.83400074 28.52466065 65.07869931 31.28584361 67.3125 34.25 C68.05628906 35.22582031 68.80007812 36.20164063 69.56640625 37.20703125 C81.67508072 55.12093784 83.7471036 78.15250515 80.05078125 99.109375 C78.03273195 107.31781181 74.5541441 114.91797516 70.75 122.4375 C70.09 122.4375 69.43 122.4375 68.75 122.4375 C68.42 123.7575 68.09 125.0775 67.75 126.4375 C67.09 126.4375 66.43 126.4375 65.75 126.4375 C65.4096875 127.5203125 65.4096875 127.5203125 65.0625 128.625 C63.48073192 132.01450303 61.4509863 133.86214097 58.75 136.4375 C58.028125 137.38625 57.30625 138.335 56.5625 139.3125 C47.73001802 150.04355288 32.80935557 156.07984121 19.75 159.4375 C18.47962891 159.7778125 18.47962891 159.7778125 17.18359375 160.125 C4.18479644 163.05430644 -10.65630356 162.74050085 -23.25 158.4375 C-24.15621094 158.1590625 -25.06242187 157.880625 -25.99609375 157.59375 C-46.28787956 150.91616942 -62.88624048 135.35809338 -72.5 116.5 C-81.74692128 97.67964186 -83.64988423 74.62769606 -77.03808594 54.53320312 C-73.35764936 44.74606942 -67.80427834 33.78251855 -60.25 26.4375 C-59.59 26.4375 -58.93 26.4375 -58.25 26.4375 C-57.9921875 25.84453125 -57.734375 25.2515625 -57.46875 24.640625 C-56.15230105 22.26089035 -54.82419218 20.92771208 -52.75 19.1875 C-52.1415625 18.66671875 -51.533125 18.1459375 -50.90625 17.609375 C-49.25 16.4375 -49.25 16.4375 -47.25 16.4375 C-47.25 15.7775 -47.25 15.1175 -47.25 14.4375 C-33.28278413 4.10600193 -17.16080286 -0.14934341 0 0 Z M-49.25 30.4375 C-49.25 31.4275 -49.25 32.4175 -49.25 33.4375 C-49.9821875 33.62570313 -50.714375 33.81390625 -51.46875 34.0078125 C-55.22502762 35.93870802 -56.74127376 38.7500945 -58.75 42.3125 C-59.13800781 42.98144287 -59.52601562 43.65038574 -59.92578125 44.33959961 C-69.54361115 61.26127065 -72.11236516 80.202501 -68.27734375 99.43359375 C-64.33636351 110.95684016 -57.67925126 122.77623335 -48.25 130.4375 C-47.32574219 131.64212891 -47.32574219 131.64212891 -46.3828125 132.87109375 C-38.54999594 142.2962961 -23.2344443 148.89112009 -11.25 150.4375 C-7.207398 150.66402511 -3.17349747 150.73120274 0.875 150.75 C2.39504639 150.75833862 2.39504639 150.75833862 3.94580078 150.7668457 C10.42684866 150.70512646 16.44943572 149.95571873 22.75 148.4375 C22.75 147.7775 22.75 147.1175 22.75 146.4375 C24.049375 146.23125 25.34875 146.025 26.6875 145.8125 C32.28503496 144.56665366 36.20957682 141.82682998 40.75 138.4375 C41.5234375 137.8909375 42.296875 137.344375 43.09375 136.78125 C46.00645991 134.71441513 46.00645991 134.71441513 48.75 132.4375 C48.75 131.7775 48.75 131.1175 48.75 130.4375 C49.41 130.4375 50.07 130.4375 50.75 130.4375 C50.75 129.7775 50.75 129.1175 50.75 128.4375 C51.41 128.4375 52.07 128.4375 52.75 128.4375 C56.05290192 124.98548167 56.05290192 124.98548167 56.75 120.4375 C57.41 120.4375 58.07 120.4375 58.75 120.4375 C62.28794199 116.07403821 64.00644941 111.40528168 65.8203125 106.12109375 C66.43042966 104.35995724 67.08828787 102.61450116 67.796875 100.890625 C74.2943506 84.16761402 71.08255462 66.57204728 64.5859375 50.5703125 C59.59140808 39.66389112 49.00772058 25.55362097 37.4375 21.1875 C36.1071875 20.81625 36.1071875 20.81625 34.75 20.4375 C34.75 19.7775 34.75 19.1175 34.75 18.4375 C5.13035621 7.06328994 -24.96193235 6.68916719 -49.25 30.4375 Z " fill="#8C4D91" transform="translate(119.25,13.5625)"/>
<path d="M0 0 C3.4375 -0.4375 3.4375 -0.4375 7 0 C9.21956491 2.15957667 9.96435902 3.38447072 10.14453125 6.49609375 C10.03496094 7.46675781 9.92539063 8.43742187 9.8125 9.4375 C9.69519531 10.57316406 9.57789063 11.70882812 9.45703125 12.87890625 C9.3480249 13.84207764 9.3480249 13.84207764 9.23681641 14.82470703 C8.96660789 17.30672551 8.73711611 19.79085971 8.51171875 22.27734375 C8.18019756 25.91202148 7.84781581 29.54652822 7.5 33.1796875 C7.4278125 33.94007324 7.355625 34.70045898 7.28125 35.48388672 C6.9254536 38.66690552 6.46436323 41.83120468 6 45 C6.85754883 44.98428955 7.71509766 44.9685791 8.59863281 44.95239258 C11.78920247 44.90117577 14.97956215 44.86360688 18.17041016 44.83520508 C19.54971218 44.82014578 20.92896653 44.79969387 22.30810547 44.77368164 C24.29373403 44.73717585 26.27971618 44.72185147 28.265625 44.70703125 C29.45961914 44.6913208 30.65361328 44.67561035 31.88378906 44.65942383 C35.26690266 45.02917026 36.6500698 45.57372471 39 48 C39.59249669 51.64460146 39.29569047 53.46574985 37.50390625 56.703125 C36.86324219 57.54359375 36.22257812 58.3840625 35.5625 59.25 C34.92441406 60.10078125 34.28632813 60.9515625 33.62890625 61.828125 C32.82259766 62.90320313 32.82259766 62.90320313 32 64 C31.67 64.66 31.34 65.32 31 66 C30.34 66 29.68 66 29 66 C28.76925781 66.67804688 28.53851563 67.35609375 28.30078125 68.0546875 C26.68016667 71.72418717 24.49156078 74.86416134 22.1875 78.125 C21.19612268 79.54522968 20.20525973 80.9658185 19.21484375 82.38671875 C18.6926123 83.13356934 18.17038086 83.88041992 17.63232422 84.64990234 C15.94807341 87.07475999 14.28559069 89.51326666 12.62890625 91.95703125 C12.06598877 92.78638184 11.50307129 93.61573242 10.9230957 94.47021484 C9.8403407 96.06693483 8.75933134 97.66484054 7.68041992 99.26416016 C-3.55816005 115.78257404 -3.55816005 115.78257404 -9 120 C-12.75 120.375 -12.75 120.375 -16 120 C-17.9149073 118.0850927 -17.16705604 115.26289302 -17.18969727 112.71435547 C-17.18897217 111.83924316 -17.18824707 110.96413086 -17.1875 110.0625 C-17.18737915 108.71889404 -17.18737915 108.71889404 -17.18725586 107.34814453 C-17.1192095 99.20980052 -16.32776056 91.25107866 -15.27001953 83.19042969 C-14.77011218 79.13512341 -14.38971982 75.06714329 -14 71 C-14.67579102 71.01571045 -15.35158203 71.0314209 -16.04785156 71.04760742 C-19.11514897 71.11003867 -22.18231259 71.14901647 -25.25 71.1875 C-26.84521484 71.22520508 -26.84521484 71.22520508 -28.47265625 71.26367188 C-29.49746094 71.27333984 -30.52226563 71.28300781 -31.578125 71.29296875 C-32.99206543 71.31653442 -32.99206543 71.31653442 -34.43457031 71.34057617 C-37.49345307 70.93449115 -38.82829433 70.1720168 -41 68 C-41.8327721 63.68472641 -41.79520112 61.41723523 -39.63671875 57.5703125 C-37.8243169 54.99035244 -35.92617138 52.49588405 -34 50 C-30.39502509 44.80883613 -27.05906761 39.52985299 -24 34 C-23.34 34 -22.68 34 -22 34 C-21.78214844 33.34 -21.56429687 32.68 -21.33984375 32 C-19.54500258 27.98123026 -17.09831713 24.58386671 -14.5625 21 C-13.58326064 19.60513079 -12.60536198 18.20931926 -11.62890625 16.8125 C-10.94078857 15.83216797 -10.94078857 15.83216797 -10.23876953 14.83203125 C-9.18060434 13.26709794 -8.21804763 11.6382326 -7.27734375 10 C-6.85582031 9.34 -6.43429688 8.68 -6 8 C-5.34 8 -4.68 8 -4 8 C-3.71125 7.236875 -3.4225 6.47375 -3.125 5.6875 C-2 3 -2 3 0 0 Z " fill="#8F4D94" transform="translate(121,34)"/>
<path d="M0 0 C0.66 0 1.32 0 2 0 C2.33 0.99 2.66 1.98 3 3 C1.02 3.99 1.02 3.99 -1 5 C-1 5.66 -1 6.32 -1 7 C-0.34 7 0.32 7 1 7 C-0.4258086 10.45195767 -2.09746334 12.1014256 -5.125 14.25 C-5.84945312 14.77078125 -6.57390625 15.2915625 -7.3203125 15.828125 C-7.87460938 16.21484375 -8.42890625 16.6015625 -9 17 C-9.33 16.67 -9.66 16.34 -10 16 C-10.33 16.66 -10.66 17.32 -11 18 C-11.66 18 -12.32 18 -13 18 C-13.33 17.67 -13.66 17.34 -14 17 C-14.66 17 -15.32 17 -16 17 C-16 16.34 -16 15.68 -16 15 C-16.66 15 -17.32 15 -18 15 C-16.74465108 9.72753455 -14.64657984 5.86883978 -10 3 C-6.65656783 2.23649982 -3.42380035 2.01353281 0 2 C0 1.34 0 0.68 0 0 Z " fill="#864E8C" transform="translate(77,29)"/>
<path d="M0 0 C2.64 0.33 5.28 0.66 8 1 C7.34 1.33 6.68 1.66 6 2 C6 4.31 6 6.62 6 9 C6.99 9 7.98 9 9 9 C9 9.66 9 10.32 9 11 C11.92824652 11.97608217 13.95613276 12.08226668 17 12 C17.495 13.98 17.495 13.98 18 16 C19.32 16.33 20.64 16.66 22 17 C21.01 17.495 21.01 17.495 20 18 C17.9906609 17.01890041 15.9924783 16.01490405 14 15 C-0.45513413 10.20833137 -13.93211856 10.21228525 -29 12 C-28.67 11.01 -28.34 10.02 -28 9 C-27.23333008 8.96036133 -26.46666016 8.92072266 -25.67675781 8.87988281 C-22.19979974 8.6892347 -18.72522225 8.46995078 -15.25 8.25 C-13.44015625 8.1571875 -13.44015625 8.1571875 -11.59375 8.0625 C-10.43359375 7.98515625 -9.2734375 7.9078125 -8.078125 7.828125 C-7.00981445 7.7652832 -5.94150391 7.70244141 -4.84082031 7.63769531 C-1.4506164 6.8766767 -0.1903533 5.63396916 2 3 C1.34 2.67 0.68 2.34 0 2 C0 1.34 0 0.68 0 0 Z " fill="#8C4E8F" transform="translate(130,14)"/>
<path d="M0 0 C5.28 0 10.56 0 16 0 C16 0.99 16 1.98 16 3 C18.97 3 21.94 3 25 3 C25.495 3.99 25.495 3.99 26 5 C20.6366089 6.65797088 14.97429882 6.18597444 9.41796875 6.18530273 C7.37479149 6.18750022 5.33214513 6.20571012 3.2890625 6.22460938 C1.36320312 6.22750977 1.36320312 6.22750977 -0.6015625 6.23046875 C-2.37007568 6.23663208 -2.37007568 6.23663208 -4.17431641 6.24291992 C-7 6 -7 6 -9 4 C-8 3 -8 3 -6.15234375 2.90234375 C-4.1015625 2.93489583 -2.05078125 2.96744792 0 3 C0 2.01 0 1.02 0 0 Z " fill="#944C9A" transform="translate(112,167)"/>
<path d="M0 0 C0.33 0.66 0.66 1.32 1 2 C1.93005859 2.45246094 1.93005859 2.45246094 2.87890625 2.9140625 C5.23392016 4.11976023 6.31089537 5.31132985 7.9375 7.375 C10.3712145 10.34128306 12.8940332 12.71620088 16 15 C15.67 15.66 15.34 16.32 15 17 C13.68 16.67 12.36 16.34 11 16 C11 16.99 11 17.98 11 19 C12.98 19.66 14.96 20.32 17 21 C16.34 21.33 15.68 21.66 15 22 C14.34786708 24.02463255 14.34786708 24.02463255 14 26 C9.09198451 24.51272258 5.59508707 21.55364515 2 18 C2 17.67 2 17.34 2 17 C4.31 16.34 6.62 15.68 9 15 C8.67 13.68 8.34 12.36 8 11 C6.68 10.67 5.36 10.34 4 10 C4.66 10 5.32 10 6 10 C6 9.34 6 8.68 6 8 C4.68 8 3.36 8 2 8 C0.74335022 5.09399739 0 3.20395416 0 0 Z " fill="#834C8A" transform="translate(64,137)"/>
<path d="M0 0 C0.66 0 1.32 0 2 0 C2 0.66 2 1.32 2 2 C3.65 1.34 5.3 0.68 7 0 C6.95875 0.9075 6.9175 1.815 6.875 2.75 C6.99531556 5.8782046 7.3914708 7.38614006 9 10 C9.99 10 10.98 10 12 10 C12.309375 10.94875 12.61875 11.8975 12.9375 12.875 C13.87394742 15.86080408 13.87394742 15.86080408 15 18 C13.625 20 13.625 20 12 22 C11.34 22 10.68 22 10 22 C10.33 20.68 10.66 19.36 11 18 C9.8553125 17.9071875 9.8553125 17.9071875 8.6875 17.8125 C6 17 6 17 4.1875 14.625 C3 12 3 12 3 9 C2.34 9 1.68 9 1 9 C0.67 6.03 0.34 3.06 0 0 Z " fill="#924D97" transform="translate(43,112)"/>
<path d="M0 0 C0.680625 -0.00515625 1.36125 -0.0103125 2.0625 -0.015625 C4 0.25 4 0.25 7 2.25 C7 1.59 7 0.93 7 0.25 C7.66 0.25 8.32 0.25 9 0.25 C8.67 1.24 8.34 2.23 8 3.25 C7.01 3.25 6.02 3.25 5 3.25 C4.67 4.24 4.34 5.23 4 6.25 C2.66666667 6.58333333 1.33333333 6.91666667 0 7.25 C-0.33 8.24 -0.66 9.23 -1 10.25 C-2.58467728 9.96572583 -4.1677057 9.67225182 -5.75 9.375 C-6.63171875 9.21257812 -7.5134375 9.05015625 -8.421875 8.8828125 C-10.86947744 8.28203736 -12.80599857 7.47002883 -15 6.25 C-13 4.25 -13 4.25 -9.875 4.125 C-8.92625 4.16625 -7.9775 4.2075 -7 4.25 C-7 3.59 -7 2.93 -7 2.25 C-4.00261059 0.25174039 -3.36652492 -0.02550398 0 0 Z " fill="#924D95" transform="translate(151,158.75)"/>
<path d="M0 0 C0.66 0.33 1.32 0.66 2 1 C1.7834375 1.93392578 1.7834375 1.93392578 1.5625 2.88671875 C0.16691435 9.83557228 -0.21994211 16.54949758 -0.25 23.625 C-0.25902344 24.49471436 -0.26804687 25.36442871 -0.27734375 26.26049805 C-0.24961764 32.39085629 0.65722885 38.0318307 2 44 C2.34450114 45.99810662 2.68377223 47.99722415 3 50 C2.01 50 1.02 50 0 50 C-2.41706541 39.18075485 -3.39782446 29.08014794 -3 18 C-3.66 18 -4.32 18 -5 18 C-3.75971762 11.82777121 -2.10396411 5.93317878 0 0 Z " fill="#0E0B1A" transform="translate(40,70)"/>
<path d="M0 0 C0.95376567 3.20782086 1.11621181 6.08187396 1.09765625 9.421875 C1.09443359 10.44667969 1.09121094 11.47148438 1.08789062 12.52734375 C1.07951172 13.59082031 1.07113281 14.65429688 1.0625 15.75 C1.05798828 16.82894531 1.05347656 17.90789062 1.04882812 19.01953125 C1.03705727 21.67974383 1.02061399 24.33984365 1 27 C1.66 27 2.32 27 3 27 C3 27.99 3 28.98 3 30 C2.34 30 1.68 30 1 30 C1 33.3 1 36.6 1 40 C1.66 40.33 2.32 40.66 3 41 C2.67 41.66 2.34 42.32 2 43 C2.66 43 3.32 43 4 43 C4 43.99 4 44.98 4 46 C4.99 46 5.98 46 7 46 C6.505 48.475 6.505 48.475 6 51 C2.46943491 49.23471746 1.36461102 45.51778824 0 42 C-2.19982597 34.4106004 -2.19541977 26.59006009 -2.25 18.75 C-2.2593457 17.81526855 -2.26869141 16.88053711 -2.27832031 15.91748047 C-2.25222182 10.27317885 -1.60176249 5.4154827 0 0 Z " fill="#1F1329" transform="translate(52,74)"/>
<path d="M0 0 C0 0.66 0 1.32 0 2 C-0.99 2 -1.98 2 -3 2 C-3.0928125 2.8971875 -3.0928125 2.8971875 -3.1875 3.8125 C-4.33554682 6.90339529 -6.10547052 7.5880344 -9 9 C-9.66 9 -10.32 9 -11 9 C-11 9.66 -11 10.32 -11 11 C-11.66 11 -12.32 11 -13 11 C-13 11.66 -13 12.32 -13 13 C-13.66 13 -14.32 13 -15 13 C-15 13.66 -15 14.32 -15 15 C-15.66 15 -16.32 15 -17 15 C-17.99 17.475 -17.99 17.475 -19 20 C-19.66 20 -20.32 20 -21 20 C-21 20.66 -21 21.32 -21 22 C-21.66 22 -22.32 22 -23 22 C-23.99 24.475 -23.99 24.475 -25 27 C-25.99 27 -26.98 27 -28 27 C-26.54694849 22.88302072 -24.67354206 19.45987796 -22 16 C-19.75 15.125 -19.75 15.125 -18 15 C-17.88205078 14.11828125 -17.88205078 14.11828125 -17.76171875 13.21875 C-16.75079129 10.27409975 -15.30182802 9.33468062 -12.8125 7.5 C-12.00296875 6.90058594 -11.1934375 6.30117188 -10.359375 5.68359375 C-9.58078125 5.12800781 -8.8021875 4.57242188 -8 4 C-7.38640625 3.55785156 -6.7728125 3.11570313 -6.140625 2.66015625 C-2.31605872 0 -2.31605872 0 0 0 Z " fill="#26112E" transform="translate(88,32)"/>
<path d="M0 0 C0.33 0.66 0.66 1.32 1 2 C0.67 2.66 0.34 3.32 0 4 C0.66 4 1.32 4 2 4 C2 4.66 2 5.32 2 6 C2.66 6 3.32 6 4 6 C4 5.34 4 4.68 4 4 C4.66 4.33 5.32 4.66 6 5 C5.67 5.66 5.34 6.32 5 7 C5.66 7 6.32 7 7 7 C7.33 6.01 7.66 5.02 8 4 C8.99 4.33 9.98 4.66 11 5 C11 5.66 11 6.32 11 7 C10.13375 7.309375 10.13375 7.309375 9.25 7.625 C6.20666366 9.48481665 4.92688574 12.04544187 3 15 C2.34 15 1.68 15 1 15 C1.185625 14.401875 1.37125 13.80375 1.5625 13.1875 C2.22093687 10.83591238 2.22093687 10.83591238 1 8 C-2.11332248 8.66868314 -2.11332248 8.66868314 -3.1875 11.0625 C-3.455625 11.701875 -3.72375 12.34125 -4 13 C-4.66 13 -5.32 13 -6 13 C-6.33 13.66 -6.66 14.32 -7 15 C-7.99 14.67 -8.98 14.34 -10 14 C-8.71117878 12.03979285 -7.41885043 10.08189123 -6.125 8.125 C-5.04605469 6.48917969 -5.04605469 6.48917969 -3.9453125 4.8203125 C-2 2 -2 2 0 0 Z " fill="#864C8C" transform="translate(59,40)"/>
<path d="M0 0 C0.66 0 1.32 0 2 0 C4.56337623 10.43660324 6.43974967 21.22613298 6 32 C5.34 32 4.68 32 4 32 C3.87625 33.134375 3.7525 34.26875 3.625 35.4375 C3.41875 36.613125 3.2125 37.78875 3 39 C2.01 39.495 2.01 39.495 1 40 C1.00523682 39.07251953 1.01047363 38.14503906 1.01586914 37.18945312 C1.03301327 33.71548834 1.04549965 30.24156918 1.05493164 26.76757812 C1.05992943 25.27017503 1.0667299 23.77277673 1.07543945 22.27539062 C1.08770623 20.11066495 1.09327397 17.94600435 1.09765625 15.78125 C1.10551147 13.8331543 1.10551147 13.8331543 1.11352539 11.84570312 C0.9946608 7.81913327 0.56026769 3.98584904 0 0 Z " fill="#170A1D" transform="translate(198,72)"/>
<path d="M0 0 C0.99 0 1.98 0 3 0 C3 0.66 3 1.32 3 2 C7.95 2 12.9 2 18 2 C18 2.99 18 3.98 18 5 C19.65 4.67 21.3 4.34 23 4 C22.34 5.32 21.68 6.64 21 8 C18.69 8 16.38 8 14 8 C12.68 10.31 11.36 12.62 10 15 C8.62437146 13.71034824 7.29233607 12.37310707 6 11 C6 10.34 6 9.68 6 9 C7.65 9 9.3 9 11 9 C11.33 8.01 11.66 7.02 12 6 C10.02 6 8.04 6 6 6 C5.67 5.01 5.34 4.02 5 3 C2.03 2.505 2.03 2.505 -1 2 C-0.67 1.34 -0.34 0.68 0 0 Z M-3 3 C-1.68 3.33 -0.36 3.66 1 4 C0.01 4.495 0.01 4.495 -1 5 C-1.66 4.34 -2.32 3.68 -3 3 Z " fill="#13111C" transform="translate(107,27)"/>
<path d="M0 0 C12.21396277 -0.74881243 22.38851762 1.2370196 34 5 C34 5.33 34 5.66 34 6 C23.85623727 6.17726964 23.85623727 6.17726964 19 5 C18.01 5 17.02 5 16 5 C15.01 4.67 14.02 4.34 13 4 C13 3.34 13 2.68 13 2 C10.36 2.33 7.72 2.66 5 3 C5 2.34 5 1.68 5 1 C3.35 1 1.7 1 0 1 C0 0.67 0 0.34 0 0 Z " fill="#150D1E" transform="translate(112,24)"/>
<path d="M0 0 C1.8125 0.6875 1.8125 0.6875 2.8125 1.6875 C4.28079039 1.76240322 5.75260238 1.77070701 7.22265625 1.75 C8.58487305 1.73839844 8.58487305 1.73839844 9.97460938 1.7265625 C11.88086437 1.70088903 13.78711459 1.67485808 15.69335938 1.6484375 C21.17618346 1.60220146 26.38881026 1.86979413 31.8125 2.6875 C31.8125 3.0175 31.8125 3.3475 31.8125 3.6875 C19.44007591 6.18616545 5.76629973 5.76928527 -6.1875 1.6875 C-2.4609375 -0.3515625 -2.4609375 -0.3515625 0 0 Z " fill="#7E5083" transform="translate(102.1875,170.3125)"/>
<path d="M0 0 C0.66 1.32 1.32 2.64 2 4 C0 6 0 6 -1.9375 6.3125 C-4.20813619 6.81199239 -4.20813619 6.81199239 -5.1875 9.125 C-7.87591148 13.38937684 -11.68980328 16.40790596 -16 19 C-17.32 19 -18.64 19 -20 19 C-20.2475 19.639375 -20.495 20.27875 -20.75 20.9375 C-22 23 -22 23 -24.125 23.75 C-25.053125 23.87375 -25.053125 23.87375 -26 24 C-26 23.01 -26 22.02 -26 21 C-23.97716732 19.56540946 -22.02410779 18.33941001 -19.875 17.125 C-14.04448667 13.68387392 -9.02378115 10.52972644 -4.75 5.1875 C-3.88375 4.1046875 -3.88375 4.1046875 -3 3 C-2.34 3 -1.68 3 -1 3 C-0.67 2.01 -0.34 1.02 0 0 Z " fill="#210E29" transform="translate(182,145)"/>
<path d="M0 0 C0.99 0.33 1.98 0.66 3 1 C-0.67315125 4.92359339 -4.4700475 7.87522245 -9 10.75 C-9.60328125 11.14832031 -10.2065625 11.54664063 -10.828125 11.95703125 C-14.1848119 14.10968916 -17.01754974 15.54744883 -21 16 C-20 13 -20 13 -18 11.9375 C-17.34 11.628125 -16.68 11.31875 -16 11 C-15.67 10.34 -15.34 9.68 -15 9 C-12.06769549 7.01871317 -9.48897679 5.64610681 -6 5 C-6.33 4.34 -6.66 3.68 -7 3 C-4.69 2.34 -2.38 1.68 0 1 C0 0.67 0 0.34 0 0 Z " fill="#87508C" transform="translate(171,153)"/>
<path d="M0 0 C2.3125 1.4375 2.3125 1.4375 3.125 4.0625 C3.186875 4.84625 3.24875 5.63 3.3125 6.4375 C4.3025 6.4375 5.2925 6.4375 6.3125 6.4375 C6.3125 7.7575 6.3125 9.0775 6.3125 10.4375 C3.0625 10.3125 3.0625 10.3125 -0.6875 9.4375 C-3 6.5 -3 6.5 -4.6875 3.4375 C-5.3475 2.7775 -6.0075 2.1175 -6.6875 1.4375 C-4.10756343 -0.28245771 -3.0937542 -0.64752995 0 0 Z " fill="#934E99" transform="translate(165.6875,30.5625)"/>
<path d="M0 0 C0.33 1.32 0.66 2.64 1 4 C-2.3 4 -5.6 4 -9 4 C-9.33 4.99 -9.66 5.98 -10 7 C-13.3 6.34 -16.6 5.68 -20 5 C-20.33 5.66 -20.66 6.32 -21 7 C-21.66 6.34 -22.32 5.68 -23 5 C-7.53002183 -0.48580786 -7.53002183 -0.48580786 0 0 Z " fill="#7D4C88" transform="translate(111,14)"/>
<path d="M0 0 C-3.03256093 2.39450437 -6.16653681 4.28609748 -9.5625 6.125 C-10.51253906 6.64320312 -11.46257812 7.16140625 -12.44140625 7.6953125 C-15 9 -15 9 -18 10 C-18 10.66 -18 11.32 -18 12 C-19.65 12.66 -21.3 13.32 -23 14 C-23 11 -23 11 -22 9 C-20.25979379 7.96738177 -18.48240823 6.99680322 -16.6875 6.0625 C-13.90667609 4.61082824 -11.33986354 3.26913688 -8.87890625 1.3203125 C-6.01977586 -0.68880615 -3.38709361 -0.19540925 0 0 Z " fill="#1C0B24" transform="translate(90,18)"/>
<path d="M0 0 C0.66 0 1.32 0 2 0 C2 0.99 2 1.98 2 3 C3.32 2.34 4.64 1.68 6 1 C6 1.66 6 2.32 6 3 C6.66 3.33 7.32 3.66 8 4 C4.25 8.875 4.25 8.875 2 10 C-0.3329866 10.04022391 -2.66706666 10.04320247 -5 10 C-5.33 8.68 -5.66 7.36 -6 6 C-4.35 6 -2.7 6 -1 6 C0.2981424 3.7763932 0.2981424 3.7763932 0 0 Z " fill="#83508B" transform="translate(110,144)"/>
<path d="M0 0 C9.24 0 18.48 0 28 0 C27.67 2.31 27.34 4.62 27 7 C26.01 6.67 25.02 6.34 24 6 C24.02320312 6.69867188 24.04640625 7.39734375 24.0703125 8.1171875 C24.09738281 9.48230469 24.09738281 9.48230469 24.125 10.875 C24.14820312 11.77992187 24.17140625 12.68484375 24.1953125 13.6171875 C24 16 24 16 22 18 C22.33 12.39 22.66 6.78 23 1 C15.41 1 7.82 1 0 1 C0 0.67 0 0.34 0 0 Z " fill="#643967" transform="translate(84,104)"/>
<path d="M0 0 C1.17232973 3.5169892 0.7427381 4.58671574 -0.3125 8.0625 C-1.84466188 13.33369912 -3.00510476 18.60415642 -4 24 C-4.66 24 -5.32 24 -6 24 C-8.46682017 15.47825761 -3.96623453 7.38540223 0 0 Z " fill="#784B7F" transform="translate(48,56)"/>
<path d="M0 0 C0.66 0 1.32 0 2 0 C2.33 0.99 2.66 1.98 3 3 C1.02 3.99 1.02 3.99 -1 5 C-1 5.66 -1 6.32 -1 7 C-0.34 7.33 0.32 7.66 1 8 C0.01 8 -0.98 8 -2 8 C-2 8.66 -2 9.32 -2 10 C-4.31 10.66 -6.62 11.32 -9 12 C-8.37240135 9.07120629 -7.41377341 6.63904371 -6 4 C-6.66 3.67 -7.32 3.34 -8 3 C-5.23735711 2.40267181 -2.83967231 2 0 2 C0 1.34 0 0.68 0 0 Z " fill="#934E9B" transform="translate(77,29)"/>
<path d="M0 0 C0.99 0 1.98 0 3 0 C3 0.66 3 1.32 3 2 C4.65 1.67 6.3 1.34 8 1 C8.28571429 9.57142857 8.28571429 9.57142857 6 13 C4 12 4 12 2.875 8.9375 C2.441875 7.4834375 2.441875 7.4834375 2 6 C1.34 6 0.68 6 0 6 C0 4.02 0 2.04 0 0 Z " fill="#934D97" transform="translate(186,63)"/>
<path d="M0 0 C0.33 1.32 0.66 2.64 1 4 C1.66 4 2.32 4 3 4 C3.433125 5.11375 3.86625 6.2275 4.3125 7.375 C5.69911119 11.17512334 5.69911119 11.17512334 9 13 C9.1875 15.625 9.1875 15.625 9 18 C9.66 18 10.32 18 11 18 C12.42944945 20.35438733 13.08661261 21.48032433 12.625 24.25 C12.41875 24.8275 12.2125 25.405 12 26 C8.49628009 21.95967434 6.11647204 17.75047351 3.75 13 C3.20472656 11.95199219 3.20472656 11.95199219 2.6484375 10.8828125 C0.76138615 7.12289816 -0.50593089 4.31727696 0 0 Z " fill="#805188" transform="translate(43,117)"/>
<path d="M0 0 C4.35994067 -0.024727 8.71984414 -0.04287281 13.07983398 -0.05493164 C14.56291413 -0.05995903 16.04598933 -0.06678185 17.52905273 -0.07543945 C19.66130801 -0.08757482 21.79349773 -0.09324425 23.92578125 -0.09765625 C25.20880127 -0.10289307 26.49182129 -0.10812988 27.8137207 -0.11352539 C31 0 31 0 34 1 C34 1.66 34 2.32 34 3 C33.01 2.835 32.02 2.67 31 2.5 C20.46411602 1.19003219 9.51191918 1.75282315 -1 3 C-0.67 2.01 -0.34 1.02 0 0 Z " fill="#7C5180" transform="translate(102,23)"/>
<path d="M0 0 C0.33 0 0.66 0 1 0 C1.07476562 0.72703125 1.14953125 1.4540625 1.2265625 2.203125 C2.30066225 10.416829 4.94592229 16.80974896 9 24 C8.01 24.33 7.02 24.66 6 25 C5.67 22.69 5.34 20.38 5 18 C4.01 18 3.02 18 2 18 C0.25 17 0.25 17 -1 15 C-0.83673895 13.04086743 -0.65830249 11.0786233 -0.328125 9.140625 C0.14294009 6.06748606 0.0646698 3.10415018 0 0 Z " fill="#804D83" transform="translate(50,104)"/>
<path d="M0 0 C0.66 0.33 1.32 0.66 2 1 C1.01 3.31 0.02 5.62 -1 8 C-1.66 8 -2.32 8 -3 8 C-3.33 9.32 -3.66 10.64 -4 12 C-4.66 12 -5.32 12 -6 12 C-6.4021875 13.1446875 -6.4021875 13.1446875 -6.8125 14.3125 C-7.94424112 16.87380884 -8.91223401 18.19692938 -11 20 C-11 18.68 -11 17.36 -11 16 C-10.34 16 -9.68 16 -9 16 C-8.85304687 15.43152344 -8.70609375 14.86304688 -8.5546875 14.27734375 C-6.82112018 8.30948843 -4.36893695 4.39721485 0 0 Z " fill="#825286" transform="translate(191,128)"/>
<path d="M0 0 C0.33 0 0.66 0 1 0 C1.33 4.29 1.66 8.58 2 13 C14.87 13.495 14.87 13.495 28 14 C28 14.33 28 14.66 28 15 C18.43 15 8.86 15 -1 15 C-0.67 10.05 -0.34 5.1 0 0 Z " fill="#1F0E27" transform="translate(128,64)"/>
<path d="M0 0 C0.33 0 0.66 0 1 0 C1.04898438 1.25554687 1.09796875 2.51109375 1.1484375 3.8046875 C1.51840602 12.37990698 1.96239916 20.63247523 4 29 C4.34450114 30.99810662 4.68377223 32.99722415 5 35 C4.01 35 3.02 35 2 35 C-0.45913482 23.36302275 -0.20714199 11.83418115 0 0 Z " fill="#250E2A" transform="translate(38,85)"/>
<path d="M0 0 C0.66 0 1.32 0 2 0 C3.98066441 7.24983651 4.0964057 13.59071972 3.625 21.0625 C3.56828125 22.11888672 3.5115625 23.17527344 3.453125 24.26367188 C3.31305614 26.84327338 3.16180414 29.42168625 3 32 C2.67 32 2.34 32 2 32 C1.96241577 30.97229492 1.96241577 30.97229492 1.92407227 29.92382812 C1.80714393 26.7824065 1.68486126 23.64121452 1.5625 20.5 C1.52318359 19.42234375 1.48386719 18.3446875 1.44335938 17.234375 C1.21341951 11.43281536 0.83001269 5.74731473 0 0 Z " fill="#331A3C" transform="translate(198,72)"/>
<path d="M0 0 C0 0.66 0 1.32 0 2 C2.64 2 5.28 2 8 2 C8.495 3.485 8.495 3.485 9 5 C8.11828125 4.80083984 8.11828125 4.80083984 7.21875 4.59765625 C-4.06251025 2.37706336 -15.53919344 2.34198913 -27 2 C-27 1.67 -27 1.34 -27 1 C-23.06254264 0.83231578 -19.12502757 0.6660268 -15.1875 0.5 C-14.06794922 0.45230469 -12.94839844 0.40460937 -11.79492188 0.35546875 C-10.72177734 0.31035156 -9.64863281 0.26523438 -8.54296875 0.21875 C-7.55321045 0.17685547 -6.56345215 0.13496094 -5.54370117 0.09179688 C-3.69674974 0.02514425 -1.84815371 0 0 0 Z " fill="#351B3F" transform="translate(136,12)"/>
<path d="M0 0 C0.66 0.99 1.32 1.98 2 3 C1.07084243 4.62978448 0.13135466 6.25368275 -0.8125 7.875 C-1.33457031 8.77992188 -1.85664062 9.68484375 -2.39453125 10.6171875 C-4 13 -4 13 -7 15 C-7.66 14.67 -8.32 14.34 -9 14 C-7.45158425 10.65291949 -5.50894136 7.75332488 -3.375 4.75 C-2.74335937 3.85796875 -2.11171875 2.9659375 -1.4609375 2.046875 C-0.73777344 1.03367188 -0.73777344 1.03367188 0 0 Z " fill="#230F2B" transform="translate(124,138)"/>
<path d="M0 0 C4.74107498 3.25102284 7.20870403 7.10632366 10 12 C9.34 12 8.68 12 8 12 C7.67 12.66 7.34 13.32 7 14 C6.67 12.68 6.34 11.36 6 10 C4.35 10 2.7 10 1 10 C1.020625 9.278125 1.04125 8.55625 1.0625 7.8125 C1.00179441 5.08074862 0.60741465 2.65743909 0 0 Z " fill="#1F102A" transform="translate(170,46)"/>
<path d="M0 0 C0.02909763 3.24998112 0.04683161 6.49992857 0.0625 9.75 C0.07087891 10.67039062 0.07925781 11.59078125 0.08789062 12.5390625 C0.09111328 13.42851563 0.09433594 14.31796875 0.09765625 15.234375 C0.10289307 16.05131836 0.10812988 16.86826172 0.11352539 17.70996094 C-0.05171998 21.0432977 -0.94733932 23.84201797 -2 27 C-2.33 27 -2.66 27 -3 27 C-3.13807239 20.20376993 -2.77434576 13.55155673 -2.12109375 6.78515625 C-1.83017727 3.91423907 -1.83017727 3.91423907 -3 1 C-1 0 -1 0 0 0 Z " fill="#291232" transform="translate(132,34)"/>
<path d="M0 0 C5.61 0 11.22 0 17 0 C17 0.33 17 0.66 17 1 C11.72 1 6.44 1 1 1 C1 2.65 1 4.3 1 6 C-1.64 6 -4.28 6 -7 6 C-7 5.01 -7 4.02 -7 3 C-3.535 2.505 -3.535 2.505 0 2 C0 1.34 0 0.68 0 0 Z " fill="#7F4B81" transform="translate(111,164)"/>
<path d="M0 0 C-1.45505431 3.39512672 -3.07968259 5.71110257 -6 8 C-9.625 8.875 -9.625 8.875 -13 9 C-13.66 8.34 -14.32 7.68 -15 7 C-14.34 6.773125 -13.68 6.54625 -13 6.3125 C-9.66924588 4.85529507 -6.79508436 3.02504625 -3.76953125 1.0234375 C-2 0 -2 0 0 0 Z " fill="#82487F" transform="translate(162,151)"/>
<path d="M0 0 C0.33 0 0.66 0 1 0 C2.94210433 7.47941368 4.39363688 14.25847464 4 22 C3.34 22.33 2.68 22.66 2 23 C2.33 21.35 2.66 19.7 3 18 C2.34 18 1.68 18 1 18 C0.04380267 14.00204108 -0.1039592 10.29196078 -0.0625 6.1875 C-0.05347656 5.02605469 -0.04445312 3.86460938 -0.03515625 2.66796875 C-0.02355469 1.78753906 -0.01195312 0.90710938 0 0 Z " fill="#051111" transform="translate(52,83)"/>
<path d="M0 0 C2.76276177 0.52268466 5.3260876 1.10869587 8 2 C8 2.66 8 3.32 8 4 C8.66 4 9.32 4 10 4 C10 4.66 10 5.32 10 6 C10.639375 6.226875 11.27875 6.45375 11.9375 6.6875 C14 8 14 8 14.75 10.625 C14.87375 11.800625 14.87375 11.800625 15 13 C14.01 12.13375 13.02 11.2675 12 10.375 C8.6242947 7.46871793 5.11264353 4.808192 1.50390625 2.19921875 C1.00761719 1.80347656 0.51132813 1.40773438 0 1 C0 0.67 0 0.34 0 0 Z " fill="#26112E" transform="translate(163,25)"/>
<path d="M0 0 C4.455 0.99 4.455 0.99 9 2 C9 2.66 9 3.32 9 4 C11.31 4.66 13.62 5.32 16 6 C16 6.33 16 6.66 16 7 C10.39538469 6.57910004 5.27913453 6.08386889 0 4 C0 2.66666667 0 1.33333333 0 0 Z " fill="#784A81" transform="translate(141,16)"/>
<path d="M0 0 C3.26463823 3.26463823 3.57159403 6.49210523 4.08203125 10.87890625 C4 13 4 13 2 16 C1.2733203 14.09021367 0.56924412 12.17181485 -0.125 10.25 C-0.51945313 9.18265625 -0.91390625 8.1153125 -1.3203125 7.015625 C-2 4 -2 4 -1.1171875 1.609375 C-0.74851563 1.07828125 -0.37984375 0.5471875 0 0 Z " fill="#191022" transform="translate(195,56)"/>
<path d="M0 0 C0.33 0 0.66 0 1 0 C2.125 5.75 2.125 5.75 1 8 C0.34 8 -0.32 8 -1 8 C-0.34 9.32 0.32 10.64 1 12 C0.34 12 -0.32 12 -1 12 C-1 12.99 -1 13.98 -1 15 C-2.32 15.33 -3.64 15.66 -5 16 C-4.34309381 12.21760329 -3.279869 8.78158474 -1.9375 5.1875 C-1.57527344 4.21167969 -1.21304688 3.23585938 -0.83984375 2.23046875 C-0.42412109 1.12638672 -0.42412109 1.12638672 0 0 Z " fill="#7C4A7D" transform="translate(187,112)"/>
<path d="M0 0 C1 3 1 3 0.125 4.8125 C-0.24625 5.534375 -0.6175 6.25625 -1 7 C-2.1157953 12.25319686 -2.31684193 17.52690303 -2.5625 22.875 C-2.60568359 23.75414063 -2.64886719 24.63328125 -2.69335938 25.5390625 C-2.79869339 27.69255797 -2.89977649 29.84626064 -3 32 C-3.33 32 -3.66 32 -4 32 C-4.08825361 28.52099751 -4.14080635 25.04228883 -4.1875 21.5625 C-4.21263672 20.58861328 -4.23777344 19.61472656 -4.26367188 18.61132812 C-4.32760218 12.2396077 -3.63351102 6.8494745 -1 1 C-0.67 0.67 -0.34 0.34 0 0 Z " fill="#7A4C80" transform="translate(53,69)"/>
<path d="M0 0 C0.33 0.66 0.66 1.32 1 2 C0.67 2.66 0.34 3.32 0 4 C0.66 4 1.32 4 2 4 C2 4.66 2 5.32 2 6 C2.66 6 3.32 6 4 6 C4 5.34 4 4.68 4 4 C4.66 4.33 5.32 4.66 6 5 C5.67 5.66 5.34 6.32 5 7 C5.66 7 6.32 7 7 7 C7.33 6.01 7.66 5.02 8 4 C8.99 4.33 9.98 4.66 11 5 C11 5.66 11 6.32 11 7 C7.32937509 8.57312496 5.55697326 9.14440048 1.625 8.125 C0.75875 7.75375 -0.1075 7.3825 -1 7 C-1 6.34 -1 5.68 -1 5 C-1.66 5 -2.32 5 -3 5 C-1.125 1.125 -1.125 1.125 0 0 Z " fill="#7C457E" transform="translate(59,40)"/>
<path d="M0 0 C0.99 0 1.98 0 3 0 C2.79375 0.7425 2.5875 1.485 2.375 2.25 C1.94380448 5.41210051 2.43804922 6.30997366 4 9 C4.36784131 10.3242287 4.71202981 11.65613912 5 13 C4.01 13 3.02 13 2 13 C-2 8.65714286 -2 8.65714286 -2 6 C-1.34 6 -0.68 6 0 6 C-0.2784375 4.7934375 -0.2784375 4.7934375 -0.5625 3.5625 C-0.706875 2.716875 -0.85125 1.87125 -1 1 C-0.67 0.67 -0.34 0.34 0 0 Z " fill="#974E99" transform="translate(183,48)"/>
<path d="M0 0 C0.66 0.33 1.32 0.66 2 1 C0.40956621 6.08938811 -2.7446951 9.87456643 -6 14 C-6.6796875 12.29296875 -6.6796875 12.29296875 -7 10 C-5.8203125 7.67578125 -5.8203125 7.67578125 -4.125 5.3125 C-3.57070312 4.52488281 -3.01640625 3.73726563 -2.4453125 2.92578125 C-1 1 -1 1 0 0 Z " fill="#824D85" transform="translate(134,120)"/>
<path d="M0 0 C1.32 0 2.64 0 4 0 C3.34 2.97 2.68 5.94 2 9 C1.67 8.34 1.34 7.68 1 7 C-0.98 7.99 -2.96 8.98 -5 10 C-5.33 9.34 -5.66 8.68 -6 8 C-4.7934375 7.13375 -4.7934375 7.13375 -3.5625 6.25 C-1.02133261 4.01873107 -0.34879632 3.25543229 0 0 Z " fill="#954E9D" transform="translate(56,48)"/>
<path d="M0 0 C-0.33 1.65 -0.66 3.3 -1 5 C-1.66 5 -2.32 5 -3 5 C-3 5.66 -3 6.32 -3 7 C-5.64 7.33 -8.28 7.66 -11 8 C-10.67 7.34 -10.34 6.68 -10 6 C-9.34 6 -8.68 6 -8 6 C-8 5.34 -8 4.68 -8 4 C-2.58823529 0 -2.58823529 0 0 0 Z " fill="#7B477F" transform="translate(80,24)"/>
<path d="M0 0 C0.66 0 1.32 0 2 0 C1.71572583 1.58467728 1.42225182 3.1677057 1.125 4.75 C0.96257812 5.63171875 0.80015625 6.5134375 0.6328125 7.421875 C0.03203736 9.86947744 -0.77997117 11.80599857 -2 14 C-2.66 13.67 -3.32 13.34 -4 13 C-3 5.57142857 -3 5.57142857 -2 2 C-1.34 2 -0.68 2 0 2 C0 1.34 0 0.68 0 0 Z " fill="#7D4E83" transform="translate(197,110)"/>
<path d="M0 0 C4.62 2.31 9.24 4.62 14 7 C14 7.33 14 7.66 14 8 C9.06836837 7.50683684 5.20336004 6.70216003 1 4 C0.67 2.68 0.34 1.36 0 0 Z " fill="#210E2A" transform="translate(73,161)"/>
<path d="M0 0 C3.63 0 7.26 0 11 0 C8.53698577 2.46301423 6.72639964 2.76766521 3.375 3.625 C1.87066406 4.01558594 1.87066406 4.01558594 0.3359375 4.4140625 C-0.43492188 4.60742188 -1.20578125 4.80078125 -2 5 C-2 4.01 -2 3.02 -2 2 C-1.34 2 -0.68 2 0 2 C0 1.34 0 0.68 0 0 Z " fill="#804D84" transform="translate(90,26)"/>
<path d="M0 0 C1.32 0.99 2.64 1.98 4 3 C3.34 3 2.68 3 2 3 C2 3.99 2 4.98 2 6 C1.34 6 0.68 6 0 6 C0 6.66 0 7.32 0 8 C-0.66 8 -1.32 8 -2 8 C-2 7.34 -2 6.68 -2 6 C-2.66 6 -3.32 6 -4 6 C-2.25 1.125 -2.25 1.125 0 0 Z " fill="#924E9A" transform="translate(63,38)"/>
<path d="M0 0 C5.28 0 10.56 0 16 0 C16.33 0.66 16.66 1.32 17 2 C11.06 2.495 11.06 2.495 5 3 C5 2.34 5 1.68 5 1 C3.35 1 1.7 1 0 1 C0 0.67 0 0.34 0 0 Z " fill="#26142E" transform="translate(112,24)"/>
<path d="M0 0 C5.38323353 6.49700599 5.38323353 6.49700599 7 10 C6.1875 12.3125 6.1875 12.3125 5 14 C2.96470413 11.96470413 2.3615728 10.76582618 1.375 8.125 C1.11460938 7.44695312 0.85421875 6.76890625 0.5859375 6.0703125 C0 4 0 4 0 0 Z " fill="#22102A" transform="translate(47,130)"/>
<path d="M0 0 C2.02558881 3.34939881 2.21738987 5.86962551 2.125 9.75 C2.10695312 10.73484375 2.08890625 11.7196875 2.0703125 12.734375 C2.03550781 13.85585937 2.03550781 13.85585937 2 15 C-0.09715785 11.85426323 -0.52004559 9.98543749 -1.125 6.3125 C-1.29257813 5.31863281 -1.46015625 4.32476562 -1.6328125 3.30078125 C-1.75398437 2.54152344 -1.87515625 1.78226562 -2 1 C-1.34 0.67 -0.68 0.34 0 0 Z " fill="#805085" transform="translate(188,68)"/>
<path d="M0 0 C-0.33 1.32 -0.66 2.64 -1 4 C-1.66 4 -2.32 4 -3 4 C-3.66 5.65 -4.32 7.3 -5 9 C-5.99 9 -6.98 9 -8 9 C-6.68994234 5.06982701 -4.75047804 0 0 0 Z " fill="#1E0B27" transform="translate(68,50)"/>
<path d="M0 0 C0.99 0.66 1.98 1.32 3 2 C2.04882866 3.1725131 1.08882991 4.33787015 0.125 5.5 C-0.40867187 6.1496875 -0.94234375 6.799375 -1.4921875 7.46875 C-1.98976562 7.9740625 -2.48734375 8.479375 -3 9 C-3.66 9 -4.32 9 -5 9 C-5.3125 6.75 -5.3125 6.75 -5 4 C-2.5 1.6875 -2.5 1.6875 0 0 Z " fill="#1E0E24" transform="translate(64,31)"/>
<path d="M0 0 C4.28477792 2.30718811 7.72291137 4.32966073 11 8 C7.34566236 9.21811255 6.39369816 8.56632223 3 7 C2.34 6.67 1.68 6.34 1 6 C1 5.34 1 4.68 1 4 C0.68521554 2.66216607 0.35412344 1.32796291 0 0 Z " fill="#7D4D83" transform="translate(160,24)"/>
<path d="M0 0 C0.0825 0.61875 0.165 1.2375 0.25 1.875 C0.81258459 4.18437567 0.81258459 4.18437567 3.0625 5.25 C3.701875 5.4975 4.34125 5.745 5 6 C4.67 6.66 4.34 7.32 4 8 C1.9375 8.625 1.9375 8.625 0 9 C0.33 8.01 0.66 7.02 1 6 C-1.475 5.01 -1.475 5.01 -4 4 C-4 3.01 -4 2.02 -4 1 C-2.68 1.33 -1.36 1.66 0 2 C0 1.34 0 0.68 0 0 Z " fill="#92509A" transform="translate(79,152)"/>
<path d="M0 0 C1.98 0 3.96 0 6 0 C5.67 0.99 5.34 1.98 5 3 C5.99 3.33 6.98 3.66 8 4 C8.33 4.99 8.66 5.98 9 7 C9.66 7.66 10.32 8.32 11 9 C8 9 8 9 5.95703125 7.28515625 C5.24933594 6.55167969 4.54164062 5.81820312 3.8125 5.0625 C3.09707031 4.33160156 2.38164063 3.60070312 1.64453125 2.84765625 C0 1 0 1 0 0 Z " fill="#7D4C80" transform="translate(56,144)"/>
<path d="M0 0 C2.97 0.33 5.94 0.66 9 1 C6.64046906 3.35953094 5.22104383 3.49141413 2 4 C2 4.66 2 5.32 2 6 C1.34 6 0.68 6 0 6 C0 4.02 0 2.04 0 0 Z " fill="#994B9D" transform="translate(88,22)"/>
<path d="M0 0 C0.66 0.66 1.32 1.32 2 2 C-1.9050849 5.55007718 -4.97734643 6.81819916 -10 8 C-9.78515625 6.140625 -9.78515625 6.140625 -9 4 C-6.93359375 2.734375 -6.93359375 2.734375 -4.4375 1.75 C-3.61121094 1.41484375 -2.78492188 1.0796875 -1.93359375 0.734375 C-1.29550781 0.49203125 -0.65742188 0.2496875 0 0 Z " fill="#210E28" transform="translate(154,152)"/>
<path d="M0 0 C1.98 0 3.96 0 6 0 C6.625 2.875 6.625 2.875 7 6 C6.34 6.66 5.68 7.32 5 8 C4.16382818 6.8562364 3.33113541 5.70992861 2.5 4.5625 C2.0359375 3.92441406 1.571875 3.28632812 1.09375 2.62890625 C0 1 0 1 0 0 Z " fill="#1A0E21" transform="translate(183,43)"/>
<path d="M0 0 C3.63 0 7.26 0 11 0 C11.33 1.32 11.66 2.64 12 4 C13.32 4.33 14.64 4.66 16 5 C15.01 5.495 15.01 5.495 14 6 C12 5 10 4 8 3 C5.34928877 2.2086006 2.70233548 1.60569588 0 1 C0 0.67 0 0.34 0 0 Z " fill="#683D6A" transform="translate(136,26)"/>
<path d="M0 0 C-0.33 0.99 -0.66 1.98 -1 3 C-9.415 3.495 -9.415 3.495 -18 4 C-18 3.67 -18 3.34 -18 3 C-15.3754034 2.49779928 -12.75036631 1.99814643 -10.125 1.5 C-9.37863281 1.35691406 -8.63226563 1.21382812 -7.86328125 1.06640625 C-2.2265625 0 -2.2265625 0 0 0 Z " fill="#32183A" transform="translate(146,171)"/>
<path d="M0 0 C0.66 0.33 1.32 0.66 2 1 C1.01 1.33 0.02 1.66 -1 2 C-1 2.66 -1 3.32 -1 4 C-8.42857143 6.14285714 -8.42857143 6.14285714 -12 7 C-12.33 6.01 -12.66 5.02 -13 4 C-9.7 3.67 -6.4 3.34 -3 3 C-3 2.34 -3 1.68 -3 1 C-2.01 0.67 -1.02 0.34 0 0 Z " fill="#804786" transform="translate(145,159)"/>
<path d="M0 0 C1.0326802 2.78823655 1.04509293 3.8677274 0.0625 6.75 C-0.288125 7.4925 -0.63875 8.235 -1 9 C-1.99 8.67 -2.98 8.34 -4 8 C-4 8.66 -4 9.32 -4 10 C-4.66 10 -5.32 10 -6 10 C-5.67 8.68 -5.34 7.36 -5 6 C-4.34 6 -3.68 6 -3 6 C-2.690625 5.195625 -2.38125 4.39125 -2.0625 3.5625 C-1 1 -1 1 0 0 Z " fill="#74467A" transform="translate(102,62)"/>
<path d="M0 0 C0.33 0.66 0.66 1.32 1 2 C3.02463255 2.65213292 3.02463255 2.65213292 5 3 C4.67 4.32 4.34 5.64 4 7 C2.68 7.33 1.36 7.66 0 8 C-0.38063221 5.6739143 -0.71269945 3.33944736 -1 1 C-0.67 0.67 -0.34 0.34 0 0 Z " fill="#08110E" transform="translate(177,61)"/>
<path d="M0 0 C0.66 0.66 1.32 1.32 2 2 C0.68 4.97 -0.64 7.94 -2 11 C-2.33 11 -2.66 11 -3 11 C-3.75 7.75 -3.75 7.75 -4 4 C-2.0625 1.5625 -2.0625 1.5625 0 0 Z " fill="#7D4C83" transform="translate(57,58)"/>
<path d="M0 0 C1.29608947 0.93137592 2.58671632 1.8703566 3.875 2.8125 C4.59429687 3.33457031 5.31359375 3.85664063 6.0546875 4.39453125 C8 6 8 6 10 9 C9.236875 8.835 8.47375 8.67 7.6875 8.5 C4.96403764 7.90854604 4.96403764 7.90854604 2 8 C1.34 5.36 0.68 2.72 0 0 Z " fill="#25132D" transform="translate(62,151)"/>
<path d="M0 0 C0.33 0.66 0.66 1.32 1 2 C1.61875 2.28875 2.2375 2.5775 2.875 2.875 C5.36796335 4.19480413 6.45147781 5.67721672 8 8 C6.02 8 4.04 8 2 8 C0.74335022 5.09399739 0 3.20395416 0 0 Z " fill="#704575" transform="translate(64,137)"/>
<path d="M0 0 C0.33 0.66 0.66 1.32 1 2 C1.66 2.33 2.32 2.66 3 3 C2.67 3.66 2.34 4.32 2 5 C2.66 5 3.32 5 4 5 C4 5.99 4 6.98 4 8 C4.99 8 5.98 8 7 8 C6.67 9.65 6.34 11.3 6 13 C3.49387834 11.74693917 3.11615658 10.66521628 1.875 8.1875 C1.52179687 7.50042969 1.16859375 6.81335938 0.8046875 6.10546875 C0 4 0 4 0 0 Z " fill="#281631" transform="translate(52,112)"/>
<path d="M0 0 C0.33 1.32 0.66 2.64 1 4 C-0.21484375 5.921875 -0.21484375 5.921875 -1.9375 7.75 C-2.50339844 8.36359375 -3.06929687 8.9771875 -3.65234375 9.609375 C-4.31943359 10.29773438 -4.31943359 10.29773438 -5 11 C-5.66 10.67 -6.32 10.34 -7 10 C-3.535 5.05 -3.535 5.05 0 0 Z " fill="#311739" transform="translate(143,111)"/>
<path d="M0 0 C0.66 0.33 1.32 0.66 2 1 C0.87548273 3.9719385 -0.22293791 6.33440687 -2 9 C-2.66 8.34 -3.32 7.68 -4 7 C-5.98 7.99 -5.98 7.99 -8 9 C-7.04882866 7.8274869 -6.08882991 6.66212985 -5.125 5.5 C-4.32449219 4.52546875 -4.32449219 4.52546875 -3.5078125 3.53125 C-2.76144531 2.77328125 -2.76144531 2.77328125 -2 2 C-1.34 2 -0.68 2 0 2 C0 1.34 0 0.68 0 0 Z " fill="#7B4C82" transform="translate(170,142)"/>
<path d="M0 0 C0.66 1.32 1.32 2.64 2 4 C1.01 4.495 1.01 4.495 0 5 C0 5.66 0 6.32 0 7 C-1.32 7 -2.64 7 -4 7 C-4 7.99 -4 8.98 -4 10 C-4.66 9.67 -5.32 9.34 -6 9 C-5.67 8.01 -5.34 7.02 -5 6 C-4.34 6 -3.68 6 -3 6 C-2.690625 5.195625 -2.38125 4.39125 -2.0625 3.5625 C-1 1 -1 1 0 0 Z " fill="#78497C" transform="translate(181,128)"/>
<path d="M0 0 C0.33 0.66 0.66 1.32 1 2 C0.328125 3.91015625 0.328125 3.91015625 -0.75 6.0625 C-1.09546875 6.77535156 -1.4409375 7.48820312 -1.796875 8.22265625 C-3 10 -3 10 -6 11 C-4.74194623 6.49197399 -3.09592835 3.5087188 0 0 Z " fill="#754775" transform="translate(93,75)"/>
<path d="M0 0 C0.99 0 1.98 0 3 0 C1.68775452 3.93673644 0.08089673 6.22719294 -3 9 C-2.67 6.69 -2.34 4.38 -2 2 C-1.34 2 -0.68 2 0 2 C0 1.34 0 0.68 0 0 Z " fill="#805186" transform="translate(123,135)"/>
<path d="M0 0 C2 2 2 2 2.125 5.125 C2.08375 6.07375 2.0425 7.0225 2 8 C1.34 8 0.68 8 0 8 C-0.33 9.32 -0.66 10.64 -1 12 C-1.02698189 10.37509046 -1.04638757 8.75005367 -1.0625 7.125 C-1.07410156 6.22007813 -1.08570312 5.31515625 -1.09765625 4.3828125 C-1 2 -1 2 0 0 Z " fill="#8A4F89" transform="translate(107,120)"/>
<path d="M0 0 C2.31 0 4.62 0 7 0 C7.33 0.99 7.66 1.98 8 3 C5.36 3 2.72 3 0 3 C0 2.01 0 1.02 0 0 Z " fill="#97479B" transform="translate(96,163)"/>
<path d="M0 0 C4.4571874 0.26218749 6.51522698 0.57711289 9.9375 3.5625 C10.618125 4.366875 11.29875 5.17125 12 6 C6.97734643 4.81819916 3.9050849 3.55007718 0 0 Z " fill="#2A1532" transform="translate(86,155)"/>
<path d="M0 0 C0.33 0.66 0.66 1.32 1 2 C1.99 2 2.98 2 4 2 C4.33 3.98 4.66 5.96 5 8 C4.01 8 3.02 8 2 8 C-0.1519437 4.77208445 -0.20086443 3.71599191 0 0 Z " fill="#97468E" transform="translate(51,120)"/>
<path d="M0 0 C0.33 0 0.66 0 1 0 C1.25 2.75 1.25 2.75 1 6 C-1 8.375 -1 8.375 -3 10 C-3.33 9.01 -3.66 8.02 -4 7 C-3.67 6.34 -3.34 5.68 -3 5 C-2.34 5 -1.68 5 -1 5 C-0.67 3.35 -0.34 1.7 0 0 Z " fill="#7C4C84" transform="translate(159,82)"/>
<path d="M0 0 C4.95 0.99 4.95 0.99 10 2 C10 2.33 10 2.66 10 3 C5.545 3.495 5.545 3.495 1 4 C0.67 2.68 0.34 1.36 0 0 Z " fill="#1E0F29" transform="translate(93,171)"/>
<path d="M0 0 C1.02314712 0.97630424 2.02654113 1.97414532 3 3 C1.54077307 2.88590407 0.08259402 2.75834456 -1.375 2.625 C-2.59316406 2.52058594 -2.59316406 2.52058594 -3.8359375 2.4140625 C-6 2 -6 2 -8 0 C-4.95904675 -0.97744926 -3.00367313 -1.16271218 0 0 Z " fill="#794382" transform="translate(104,171)"/>
<path d="M0 0 C0.66 1.32 1.32 2.64 2 4 C-0.5654594 6.5654594 -2.47686668 6.54046087 -6 7 C-4.625 5 -4.625 5 -3 3 C-2.34 3 -1.68 3 -1 3 C-0.67 2.01 -0.34 1.02 0 0 Z " fill="#2D1933" transform="translate(182,145)"/>
<path d="M0 0 C1.65 0 3.3 0 5 0 C5 3.3 5 6.6 5 10 C3 7 3 7 2.5 3.875 C2.335 2.92625 2.17 1.9775 2 1 C1.34 0.67 0.68 0.34 0 0 Z " fill="#1D0822" transform="translate(102,105)"/>
<path d="M0 0 C0.33 0 0.66 0 1 0 C0.67 2.31 0.34 4.62 0 7 C-1.65 7.33 -3.3 7.66 -5 8 C-4.19185349 6.66402348 -3.37836819 5.331275 -2.5625 4 C-2.11003906 3.2575 -1.65757812 2.515 -1.19140625 1.75 C-0.79824219 1.1725 -0.40507812 0.595 0 0 Z " fill="#22112A" transform="translate(159,88)"/>
<path d="M0 0 C0.66 0.66 1.32 1.32 2 2 C1.625 5.125 1.625 5.125 1 8 C0.34 8 -0.32 8 -1 8 C-1.625 5.125 -1.625 5.125 -2 2 C-1.34 1.34 -0.68 0.68 0 0 Z " fill="#874B86" transform="translate(43,72)"/>
<path d="M0 0 C0.66 0.99 1.32 1.98 2 3 C0.68 4.65 -0.64 6.3 -2 8 C-5 4.25 -5 4.25 -5 2 C-3.35 2 -1.7 2 0 2 C0 1.34 0 0.68 0 0 Z " fill="#1F112C" transform="translate(118,34)"/>
<path d="M0 0 C1.52519276 0.08937803 3.04681929 0.24537146 4.5625 0.4375 C5.80193359 0.59025391 5.80193359 0.59025391 7.06640625 0.74609375 C7.70449219 0.82988281 8.34257812 0.91367188 9 1 C6.33788628 2.37579827 3.93703384 3.37063561 1 4 C0.34 3.01 -0.32 2.02 -1 1 C-0.67 0.67 -0.34 0.34 0 0 Z " fill="#7A4D80" transform="translate(141,168)"/>
<path d="M0 0 C0.99 0.33 1.98 0.66 3 1 C-1.75 5.875 -1.75 5.875 -4 7 C-4 6.01 -4 5.02 -4 4 C-4.99 3.67 -5.98 3.34 -7 3 C-4.69 2.34 -2.38 1.68 0 1 C0 0.67 0 0.34 0 0 Z " fill="#774B7F" transform="translate(171,153)"/>
<path d="M0 0 C1.04449911 3.13349732 0.93423645 3.98968256 0 7 C-0.66 7 -1.32 7 -2 7 C-2.33 7.66 -2.66 8.32 -3 9 C-3.99 9 -4.98 9 -6 9 C-4.02 6.03 -2.04 3.06 0 0 Z " fill="#2F1235" transform="translate(131,128)"/>
<path d="M0 0 C2 3 2 3 1.625 5.1875 C1.41875 5.785625 1.2125 6.38375 1 7 C0.34 7 -0.32 7 -1 7 C-1 7.66 -1 8.32 -1 9 C-1.66 9 -2.32 9 -3 9 C-1.125 2.25 -1.125 2.25 0 0 Z " fill="#1B0A24" transform="translate(134,124)"/>
<path d="M0 0 C0.99 0.33 1.98 0.66 3 1 C1.7260411 3.03833424 0.38938077 5.03852126 -1 7 C-1.66 7 -2.32 7 -3 7 C-2.25 2.25 -2.25 2.25 0 0 Z " fill="#1B1023" transform="translate(85,83)"/>
<path d="M0 0 C0.66 0.33 1.32 0.66 2 1 C1.34 4.96 0.68 8.92 0 13 C-0.33 13 -0.66 13 -1 13 C-1.02708567 11.39592672 -1.04643483 9.7917215 -1.0625 8.1875 C-1.07410156 7.29417969 -1.08570313 6.40085937 -1.09765625 5.48046875 C-1 3 -1 3 0 0 Z " fill="#210E2C" transform="translate(40,70)"/>
<path d="M0 0 C3.77545388 1.09068668 6.47043472 1.9083091 9 5 C8.01 5.495 8.01 5.495 7 6 C7 5.34 7 4.68 7 4 C5.68 4.33 4.36 4.66 3 5 C3 4.34 3 3.68 3 3 C2.01 2.67 1.02 2.34 0 2 C0 1.34 0 0.68 0 0 Z " fill="#221030" transform="translate(154,34)"/>
<path d="M0 0 C0.66 0.33 1.32 0.66 2 1 C0.515 4.465 0.515 4.465 -1 8 C-1.66 8 -2.32 8 -3 8 C-2.25 2.25 -2.25 2.25 0 0 Z " fill="#774E7E" transform="translate(191,128)"/>
<path d="M0 0 C1 2 1 2 0.25 5 C-1 8 -1 8 -4 10 C-4.33 9.34 -4.66 8.68 -5 8 C-4.00390625 6.0546875 -4.00390625 6.0546875 -2.5625 3.875 C-2.08941406 3.15054688 -1.61632812 2.42609375 -1.12890625 1.6796875 C-0.75636719 1.12539062 -0.38382813 0.57109375 0 0 Z " fill="#311835" transform="translate(149,102)"/>
<path d="M0 0 C0 0.99 0 1.98 0 3 C0.66 3.66 1.32 4.32 2 5 C0.35 6.32 -1.3 7.64 -3 9 C-3.66 8.67 -4.32 8.34 -5 8 C-3.35 5.36 -1.7 2.72 0 0 Z " fill="#714373" transform="translate(115,42)"/>
<path d="M0 0 C1.32 0 2.64 0 4 0 C2.8141763 3.37503669 1.72426311 5.64722731 -1 8 C-1.33 7.01 -1.66 6.02 -2 5 C-1.34 5 -0.68 5 0 5 C0 3.35 0 1.7 0 0 Z " fill="#1F0C24" transform="translate(52,43)"/>
<path d="M0 0 C0.99 0.33 1.98 0.66 3 1 C3 3.31 3 5.62 3 8 C0.47411298 5.63707344 -0.88820837 4.33537489 -2 1 C-1.34 0.67 -0.68 0.34 0 0 Z " fill="#170A1D" transform="translate(179,34)"/>
<path d="M0 0 C2.31 0 4.62 0 7 0 C7 0.66 7 1.32 7 2 C4.69 2.33 2.38 2.66 0 3 C0 2.01 0 1.02 0 0 Z " fill="#915095" transform="translate(104,164)"/>
<path d="M0 0 C0.33 0 0.66 0 1 0 C1.75 2.75 1.75 2.75 2 6 C0.0625 8.375 0.0625 8.375 -2 10 C-3 8 -3 8 -2.44140625 6.0546875 C-2.15136719 5.33539063 -1.86132812 4.61609375 -1.5625 3.875 C-1.27503906 3.15054688 -0.98757812 2.42609375 -0.69140625 1.6796875 C-0.46324219 1.12539062 -0.23507813 0.57109375 0 0 Z " fill="#6D3F70" transform="translate(187,112)"/>
<path d="M0 0 C3.125 -0.1875 3.125 -0.1875 6 0 C6 0.66 6 1.32 6 2 C3.36 2.33 0.72 2.66 -2 3 C-1.34 2.01 -0.68 1.02 0 0 Z " fill="#99499F" transform="translate(138,163)"/>
<path d="M0 0 C0.99 0.33 1.98 0.66 3 1 C4.1875 4.5625 4.1875 4.5625 5 8 C4.01 7.67 3.02 7.34 2 7 C0.8125 3.4375 0.8125 3.4375 0 0 Z " fill="#211429" transform="translate(42,122)"/>
<path d="M0 0 C0.33 0 0.66 0 1 0 C2.23076923 6.4 2.23076923 6.4 1.0625 9.4375 C0.711875 9.953125 0.36125 10.46875 0 11 C-0.66 10.67 -1.32 10.34 -2 10 C-1.34 6.7 -0.68 3.4 0 0 Z " fill="#21142D" transform="translate(198,112)"/>
<path d="M0 0 C0.99 0.66 1.98 1.32 3 2 C1.03533587 3.06775224 -0.96855359 4.06553465 -3 5 C-3.66 4.67 -4.32 4.34 -5 4 C-3.36587557 2.29159719 -2.13093906 1.06546953 0 0 Z " fill="#784C7B" transform="translate(155,164)"/>
<path d="M0 0 C1.32 0 2.64 0 4 0 C4 0.99 4 1.98 4 3 C4.99 3 5.98 3 7 3 C7.33 3.99 7.66 4.98 8 6 C4.08597051 4.73058503 2.20927127 3.48832306 0 0 Z " fill="#261130" transform="translate(72,145)"/>
<path d="M0 0 C0.33 0 0.66 0 1 0 C1 1.65 1 3.3 1 5 C-0.65 5.66 -2.3 6.32 -4 7 C-3.34 5.35 -2.68 3.7 -2 2 C-1.34 2 -0.68 2 0 2 C0 1.34 0 0.68 0 0 Z " fill="#2F1635" transform="translate(187,138)"/>
<path d="M0 0 C1.32 0.33 2.64 0.66 4 1 C4.33 2.98 4.66 4.96 5 7 C3.29115995 5.37660195 1.62553283 3.70680947 0 2 C0 1.34 0 0.68 0 0 Z " fill="#784E7E" transform="translate(51,136)"/>
<path d="M0 0 C3.24732932 1.62366466 3.70155136 4.75387839 5 8 C4.01 8.33 3.02 8.66 2 9 C1.34 6.03 0.68 3.06 0 0 Z " fill="#69406D" transform="translate(54,120)"/>
<path d="M0 0 C0.66 0 1.32 0 2 0 C2.66 1.32 3.32 2.64 4 4 C3.01 5.32 2.02 6.64 1 8 C0.17361624 5.10765685 0 3.11257569 0 0 Z " fill="#1E1027" transform="translate(43,56)"/>
<path d="M0 0 C0.33 0 0.66 0 1 0 C0.67 2.31 0.34 4.62 0 7 C-1.32 6.67 -2.64 6.34 -4 6 C-2.69593116 3.98079663 -1.36176581 1.98075027 0 0 Z " fill="#764B7C" transform="translate(53,48)"/>
<path d="M0 0 C0.93065133 2.60582371 1.14917407 3.64198224 0.0625 6.25 C-0.4634375 7.11625 -0.4634375 7.11625 -1 8 C-1.99 7.67 -2.98 7.34 -4 7 C-2.68 4.69 -1.36 2.38 0 0 Z " fill="#855084" transform="translate(118,38)"/>
</svg>
